<?xml version="1.0" encoding="UTF-8"?>
<svg id="svg696" viewBox="0 0 1333.33 800" xmlns="http://www.w3.org/2000/svg">
    <defs>

        <clipPath id="clippath">
            <path d="m461.03,444.26c0,113.6,92.13,205.71,205.74,205.71h0c113.59,0,205.7-92.11,205.7-205.71h0V151.98l-411.44-.06v292.33Z" fill="none"
                stroke-width="0" />
        </clipPath>
        <clipPath id="clippath-1">
            <rect fill="none" height="800" stroke-width="0" width="1333.33" y="0" />
        </clipPath>
        <clipPath id="clippath-2">
            <path d="m461.03,444.26c0,113.6,92.13,205.71,205.74,205.71h0c113.59,0,205.7-92.11,205.7-205.71h-411.44Z" fill="none"
                stroke-width="0" />
        </clipPath>
        <clipPath id="clippath-3">
            <rect fill="none" height="275.01" stroke-width="0" width="411.43" x="461.03"
                y="151.93" />
        </clipPath>
        <clipPath id="clippath-4">
            <rect fill="none" height="800" stroke-width="0" width="1333.33" y="0" />
        </clipPath>
        <clipPath id="clippath-5">
            <rect fill="none" height="275.01" stroke-width="0" width="411.43" x="461.03"
                y="151.93" />
        </clipPath>
        <clipPath id="clippath-6">
            <rect fill="none" height="800" stroke-width="0" width="1333.33" y="0" />
        </clipPath>
        <clipPath id="clippath-7">
            <rect fill="none" height="275.01" stroke-width="0" width="411.43" x="461.03"
                y="151.93" />
        </clipPath>
        <clipPath id="clippath-8">
            <rect fill="none" height="800" stroke-width="0" width="1333.33" y="0" />
        </clipPath>
        <clipPath id="clippath-9">
            <rect fill="none" height="800" stroke-width="0" width="1333.33" y="0" />
        </clipPath>
        <clipPath id="clippath-10">
            <rect fill="none" height="250.39" stroke-width="0" width="369.93" x="464.29"
                y="173.29" />
        </clipPath>
        <clipPath id="clippath-11">
            <rect fill="none" height="17.31" stroke-width="0" width="25.58" x="475.56" y="193.3" />
        </clipPath>
        <clipPath id="clippath-12">
            <rect fill="none" height="237.4" stroke-width="0" width="345.28" x="462.7" y="188.23" />
        </clipPath>
        <clipPath id="clippath-13">
            <rect fill="none" height="15.29" stroke-width="0" width="22.6" x="477.05" y="194.31" />
        </clipPath>
        <clipPath id="clippath-14">
            <rect fill="none" height="800" stroke-width="0" width="1333.33" y="0" />
        </clipPath>
        <clipPath id="clippath-15">
            <rect fill="none" height="17.31" stroke-width="0" width="25.58" x="512.55" y="218.33" />
        </clipPath>
        <clipPath id="clippath-16">
            <rect fill="none" height="17.31" stroke-width="0" width="25.58" x="549.54" y="243.36" />
        </clipPath>
        <clipPath id="clippath-17">
            <rect fill="none" height="17.31" stroke-width="0" width="25.58" x="586.52" y="268.39" />
        </clipPath>
        <clipPath id="clippath-18">
            <rect fill="none" height="17.31" stroke-width="0" width="25.58" x="623.51" y="293.42" />
        </clipPath>
        <clipPath id="clippath-19">
            <rect fill="none" height="17.31" stroke-width="0" width="25.58" x="660.5" y="318.45" />
        </clipPath>
        <clipPath id="clippath-20">
            <rect fill="none" height="17.31" stroke-width="0" width="25.58" x="697.49" y="343.48" />
        </clipPath>
        <clipPath id="clippath-21">
            <rect fill="none" height="17.31" stroke-width="0" width="25.58" x="734.47" y="368.51" />
        </clipPath>
        <clipPath id="clippath-22">
            <rect fill="none" height="17.31" stroke-width="0" width="25.58" x="771.46" y="393.55" />
        </clipPath>
        <clipPath id="clippath-23">
            <rect fill="none" height="8.13" stroke-width="0" width="21.74" x="808.45" y="418.58" />
        </clipPath>
        <clipPath id="clippath-24">
            <rect fill="none" height="4.09" stroke-width="0" width="17.92" x="809.94" y="419.58" />
        </clipPath>
        <clipPath id="clippath-25">
            <rect fill="none" height="15.29" stroke-width="0" width="22.6" x="772.95" y="394.55" />
        </clipPath>
        <clipPath id="clippath-26">
            <rect fill="none" height="15.29" stroke-width="0" width="22.6" x="735.96" y="369.52" />
        </clipPath>
        <clipPath id="clippath-27">
            <rect fill="none" height="15.29" stroke-width="0" width="22.6" x="698.97" y="344.49" />
        </clipPath>
        <clipPath id="clippath-28">
            <rect fill="none" height="15.29" stroke-width="0" width="22.6" x="661.99" y="319.46" />
        </clipPath>
        <clipPath id="clippath-29">
            <rect fill="none" height="15.29" stroke-width="0" width="22.6" x="625" y="294.43" />
        </clipPath>
        <clipPath id="clippath-30">
            <rect fill="none" height="15.29" stroke-width="0" width="22.6" x="588.01" y="269.4" />
        </clipPath>
        <clipPath id="clippath-31">
            <rect fill="none" height="15.29" stroke-width="0" width="22.6" x="551.02" y="244.37" />
        </clipPath>
        <clipPath id="clippath-32">
            <rect fill="none" height="15.29" stroke-width="0" width="22.6" x="514.04" y="219.34" />
        </clipPath>
        <clipPath id="clippath-33">
            <rect fill="none" height="800" stroke-width="0" width="1333.33" y="0" />
        </clipPath>
        <clipPath id="clippath-34">
            <rect fill="none" height="265.52" stroke-width="0" width="381.42" x="487.68"
                y="155.18" />
        </clipPath>
    </defs>
    <g id="g704">
        <path d="m0,400h1333.33V0H0v400Z" fill="#fcd116" id="path706" stroke-width="0" />
        <path d="m0,799.87h1333.33v-400H0v400Z" fill="#000000" id="path708" stroke-width="0" />
        <path d="m461.04,151.93h411.43v275.01h-411.43V151.93Z" fill="#fcd116" id="path710"
            stroke-width="0" />
        <path d="m461.04,183.33h411.43v27.07h-411.43v-27.07Z" fill="#000000" id="path712"
            stroke-width="0" />
        <path d="m461.04,237.46h411.43v27.07h-411.43v-27.07Z" fill="#000000" id="path714"
            stroke-width="0" />
        <path d="m461.04,291.6h411.43v27.07h-411.43v-27.07Z" fill="#000000" id="path716"
            stroke-width="0" />
        <path d="m461.04,345.73h411.43v27.07h-411.43v-27.07Z" fill="#000000" id="path718"
            stroke-width="0" />
        <path d="m461.04,399.86h411.43v27.07h-411.43v-27.07Z" fill="#000000" id="path720"
            stroke-width="0" />
        <g id="g722">
            <g clip-path="url(#clippath)">
                <g id="g724">
                    <path d="m461.04,660.79h411.43v-233.86h-411.43v233.86Z" fill="#fff"
                        id="path730" stroke-width="0" />
                </g>
            </g>
        </g>
        <path d="m744.71,291.6h127.76v-139.66h-127.76v139.66Z" fill="#000000" id="path732"
            stroke-width="0" />
        <path d="m745.78,291.6h126.67v-139.66h-126.67v139.66Z" fill="#fff" id="path734"
            stroke-width="0" />
        <g id="g736">
            <g clip-path="url(#clippath-1)">
                <g id="g738">
                    <g id="g744">
                        <path d="m822.01,200.95c-7.28.09-6.15-5.88-5.24-10.28.92-4.47,2.25-6.98,2.78-10.69.34-2.34-.61-3.23-2.08-3.78-2.04-.74-2.9-.74-4.73-1.25-2.5-.7-3.97-2.16-6.35-1.88-.86.1-1.18.77-1.67,1.5-.74-.07-2.1-.19-3.71-.13-2.05.07-4,.64-4.93,1.88-.94,1.28-1.19,2.59-1.38,3.96-.18,1.37-.54,2.17-.73,3.59,1.18-.8,3.17-2.05,4.54-2.05,1.1,0,1.76.13,2.74.63-1,.74-3.83,1.93-6.47,2.31-1.83.25-2.84.22-4.75,0-.73-.09-1.49.05-1.74.74-.52,1.46,4.3,3.27,7.44,3.08,1.26-.07,1.99-.25,3.15-.77-.22.53-.74,1.09-1.24,1.77-.25.36-.42.57-.68.92,1.43-.33,3.04.22,6.03-2.31,1.15-.97,1.86-1.55,2.72-2.78-.19,2.55-.49,3.99-1.31,6.4-.88,2.57-1.68,4.61-3.11,6.25-1.58,1.83-4.96,2.96-7.38,2.9-4.72-.1-9.17-5-9.06-9.85.12-5.06,3.36-10.85,4.63-14.03.63-1.55,1.25-4.75-.07-5.54-2.66-1.62-8.22-1.68-11.91-1.68-7.1,0-9.12.27-15.98.39-3.96.07-6.3.15-10.31.24.24,5.79,3.32,9.27,8.65,10.27,3.57.67,9.14.59,13.11.77.65.03,4.97-.12,5.02.63.01.52-1.5.58-1.99.61-4.15.27-6.86.3-11.74.36-4.82.05-7.32,0-12.75.05.15,2.46.48,4.27,2.22,6.35,2.62,3.14,7.8,3.63,10.82,3.72,3.26.09,5.6-.12,8.08.03,1.65.07,4.2.4,4.18.85-.05.69-1.82.52-3.29.55-7.29.13-16.3-.09-22.87-.16.03,2.45.49,4.99,2.5,7.16,2.35,2.56,6.74,3.36,9.94,3.48,4.7.18,8.28-.22,13.23.06.39.01,1-.12,1.03.12.03.21-.58.31-1,.37-4.85.68-8.23,1.21-13.51,1.86-4.76.59-7.44.89-12.22,1.38.92,3.54,2.46,5.86,5.66,7.52,2.5,1.28,5.42,1.62,9.12,1.44,5.54-.27,10.09-1.27,16.03-1.97.58-.07,1.47-.3,1.52-.13.06.19-.6.34-1,.46-4.6,1.38-9.14,2.8-15.02,4.43-6.5,1.82-10.19,2.77-16.76,4.33,5.46,5.69,7.95,7.29,10.8,7.52,3.69.28,8.66-2.2,13.81-4.6,3.36-1.56,6.34-3.02,9.45-4.43.3-.15.76-.39.8-.3.09.16-.51.48-.8.65-4.97,3.02-9.23,5.19-14.96,8.75-3.78,2.35-5.89,3.72-9.59,6.21,3.68,1.4,6.89,2.93,11.09,3.01,2.56.06,4.61-.48,6.59-2.04,2.05-1.62,3.91-3.5,6.39-5.79,2.41-2.25,3.42-3.42,6.13-5.85.33-.28.91-.94,1.04-.77.16.19-.46.65-.77,1.04-3.8,4.78-6.33,7.68-10.91,13.14,4.82.09,7.31.06,11.31-1.59,4.91-2.01,7.02-4.39,9.88-8.05.28-.42.33.6.18,1.09-.46,1.5-3.74,4.49-5.97,6.19-3.23,2.46-6.76,4.49-10.28,6.53.69.13,1.09.27,1.7.59.54.3.83.51,1.27.95-1.74,1.43-3.04,3.08-4.81,4.24-1.73,1.12-3.42,1.56-5.43,1.74-1.58.15-2.34.15-3.85-.06-.63-.07-1.23-.19-1.92-.27-.36-.06-.51.37-.68.73-.54.03-.86.11-1.37.33-1.31.58-2.19,1.41-2.31,2.83-.12,1.28.34,2.26,1.4,2.98.07-.82.4-1.34,1.07-1.8.4-.27.68-.37,1.16-.42.03.39.57.45.98.42.45-.03.92-.25,1.52-.37.64-.12.95-.13,1.64-.25-1.44.91-2.65,1.64-3.81,2.46-.46.33-.8.49-.95,1.04-.09.31,0,.57.24,1.07-.6,1.07-.86,2.13-.46,3.47.4,1.3,1.83,2.34,3.6,2.78-.28-.86-.37-1.34-.3-2.2.03-.43.07-.67.21-1.09.51.07.79.04,1.16-.4.55-.69.88-1.07,1.44-1.74.64-.77,1.01-1.21,1.67-1.98-.36,1.28-.57,1.99-.94,3.27-.31,1.06-.57,1.29-.82,2.71-.07.39.22.58.62.76-.06,2.08.58,3.14,2.1,3.96,1.25.68,3.66.88,4.99.62-1.18-.48-1.82-1.04-2.44-2.14-.31-.55-.46-.91-.57-1.55.49-.07.82-.28.92-1.01.22-1.58.37-2.4.59-3.94.15-.97.51-2.47.71-2.41.55.67,1,1.34,1.65,2.38.31.51.7.85,1.24.71.31-.09.51-.24.65-.51.33.34.48.6.59,1.06.16.71.01,1.03-.31,1.83,1.61.25,3.15-.42,3.66-1.97.57-1.74-.37-3.57-1.16-4.3.31-.71.06-1.22-.42-1.7-1.24-1.21-2.28-1.56-2.56-1.92-.57-.7-.4-1.12-.03-1.64.83-1.18,1.18-1.58,2.08-2.44.91-.88,1.47-1.32,2.55-2.01.57.55.86.89,1.34,1.52.57.71.83,1.15,1.26,1.93.74-1.22,1.19-1.89,2.02-3.05,1.03-1.38,1.62-2.17,2.8-3.44,1.13-1.21,2.59-2.45,2.92-2.75.34-.51.89,1.06,1.28,1.97.3.76.16,1.4-.06,2.31-.89,3.63-3.53,9.48-5.86,13.47-3.35,5.67-7.4,10.25-11.89,15.36,1.67.67,4,.92,6.58.77,2.53-.15,5.31-.48,8.08-1.1,1.34,1.56,2.17,2.4,3.71,3.77,1.9,1.68,3.05,2.56,5.16,3.93,2.13-1.37,3.27-2.25,5.16-3.93,1.53-1.37,2.37-2.2,3.72-3.77,2.77.62,5.54.95,8.07,1.1,2.59.15,4.91-.1,6.58-.77-4.48-5.1-8.53-9.69-11.88-15.36-2.35-3.99-4.97-9.84-5.86-13.47-.24-.91-.37-1.55-.06-2.31.37-.91.92-2.47,1.27-1.97.34.3,1.8,1.55,2.93,2.75,1.18,1.27,1.77,2.05,2.78,3.44.83,1.16,1.29,1.83,2.04,3.05.42-.79.7-1.22,1.25-1.93.49-.63.79-.97,1.35-1.52,1.06.68,1.64,1.13,2.55,2.01.89.86,1.23,1.27,2.08,2.44.36.52.54.94-.03,1.64-.28.36-1.32.71-2.56,1.92-.49.48-.74.98-.42,1.7-.8.73-1.73,2.56-1.16,4.3.49,1.55,2.05,2.22,3.66,1.97-.34-.8-.49-1.12-.31-1.83.12-.46.25-.71.59-1.06.15.27.33.42.64.51.54.13.92-.21,1.23-.71.66-1.04,1.1-1.71,1.67-2.38.19-.06.55,1.44.7,2.41.24,1.55.37,2.37.6,3.94.1.73.46.94.92,1.01-.1.64-.24,1-.57,1.55-.63,1.1-1.27,1.67-2.44,2.14,1.33.25,3.75.06,4.99-.62,1.52-.82,2.16-1.88,2.1-3.96.42-.18.7-.37.64-.76-.27-1.41-.51-1.65-.83-2.71-.36-1.28-.57-1.99-.92-3.27.64.77,1.03,1.21,1.65,1.98.58.67.89,1.06,1.44,1.74.37.45.64.48,1.16.4.13.42.18.65.22,1.09.07.86-.03,1.34-.31,2.2,1.77-.45,3.21-1.49,3.6-2.78.42-1.34.15-2.4-.43-3.47.21-.51.3-.76.21-1.07-.15-.55-.49-.71-.95-1.04-1.16-.82-2.37-1.55-3.79-2.46.67.12.98.13,1.64.25.58.12,1.06.34,1.5.37.43.03.95-.03.98-.42.49.05.77.15,1.16.42.69.46,1,.98,1.07,1.8,1.07-.71,1.53-1.7,1.4-2.98-.12-1.41-1.01-2.25-2.29-2.83-.51-.22-.83-.3-1.38-.33-.16-.36-.33-.79-.68-.73-.67.07-1.3.19-1.92.27-1.5.21-2.28.21-3.84.06-2.01-.18-3.72-.63-5.43-1.74-1.79-1.16-3.08-2.81-4.82-4.24.45-.45.73-.65,1.27-.95.61-.33,1.01-.46,1.7-.59-3.51-2.04-7.04-4.08-10.27-6.53-2.23-1.7-5.52-4.69-5.98-6.19-.15-.49-.09-1.5.19-1.09,2.84,3.66,4.96,6.04,9.88,8.05,3.99,1.65,6.47,1.68,11.3,1.59-4.58-5.46-7.1-8.37-10.91-13.14-.31-.39-.94-.85-.77-1.04.13-.16.71.49,1.06.77,2.71,2.43,3.72,3.6,6.15,5.85,2.46,2.29,4.33,4.17,6.36,5.79,1.98,1.56,4.03,2.1,6.59,2.04,4.21-.07,7.43-1.61,11.12-3.01-3.72-2.49-5.82-3.85-9.6-6.21-5.75-3.56-9.99-5.73-14.96-8.75-.31-.18-.92-.49-.82-.65.04-.09.51.15.82.3,3.11,1.41,6.07,2.87,9.44,4.43,5.15,2.4,10.13,4.88,13.81,4.6,2.86-.22,5.36-1.83,10.83-7.52-6.58-1.56-10.27-2.51-16.77-4.33-5.89-1.64-10.42-3.05-15.03-4.43-.4-.12-1.06-.27-1-.46.06-.16.94.06,1.53.13,5.92.7,10.48,1.7,16.03,1.97,3.71.18,6.61-.16,9.11-1.44,3.2-1.65,4.73-3.97,5.65-7.52-4.78-.49-7.46-.79-12.22-1.38-5.27-.65-8.66-1.18-13.5-1.86-.42-.06-1.03-.16-1-.37.01-.24.63-.11,1.03-.12,4.94-.28,8.51.12,13.23-.06,3.2-.12,7.59-.92,9.94-3.48,1.99-2.17,2.47-4.7,2.5-7.16-6.59.07-15.58.3-22.89.16-1.47-.03-3.23.13-3.27-.55-.03-.45,2.51-.77,4.17-.85,2.49-.15,4.84.06,8.08-.03,3.04-.09,8.2-.58,10.82-3.72,1.74-2.08,2.07-3.9,2.23-6.35-5.45-.05-7.93,0-12.75-.05-4.9-.06-7.59-.09-11.73-.36-.52-.03-2.04-.09-2.01-.61.03-.74,4.35-.6,5-.63,3.97-.18,9.54-.1,13.13-.77,5.31-1,8.39-4.48,8.65-10.27-4.03-.09-6.37-.16-10.33-.24-6.86-.12-8.87-.39-15.98-.39-3.69,0-9.24.06-11.91,1.68-1.32.79-.68,3.99-.07,5.54,1.28,3.18,4.51,8.97,4.63,14.03.1,4.85-4.33,9.75-9.06,9.85" fill="#000000"
                            id="path746"
                            stroke-width="0" />
                    </g>
                    <g id="g748">
                        <path d="m786.72,262.88c.21-.4.34-.63.63-.98.33-.43.54-.65.95-1.01.79.64,1.03,1.44,1.01,2.41-.03,1.61-.55,1.73-1.46,2.2.12-.57.09-.94-.15-1.46-.22-.55-.48-.85-.98-1.16" fill="#fff"
                            id="path750"
                            stroke-width="0" />
                    </g>
                    <g id="g752">
                        <path d="m779.46,268.41c-.45,0-.73-.03-1.18-.12-.4-.07-.63-.13-.98-.27,0,.7.07,1.18.52,1.71.69.82,1.43,1.07,2.8,1.43-.37-.39-.57-.65-.79-1.15-.27-.58-.34-.97-.37-1.61" fill="#fff"
                            id="path754"
                            stroke-width="0" />
                    </g>
                    <g id="g756">
                        <path d="m772.33,264.29c-.3-.27-.46-.34-.74-.6-.31-.3-.48-.49-.76-.85-.24.57-.31.94-.27,1.56.09,1.15.55,1.92,1.55,2.5-.12-.48-.15-.77-.12-1.27.05-.55.15-.89.34-1.35" fill="#fff"
                            id="path758"
                            stroke-width="0" />
                    </g>
                    <g id="g760">
                        <path d="m770.42,254.58c-.79.09-1.28.34-1.77.95-.67.82-.8,1.68-.43,2.65.19-.54.43-.83.91-1.15.42-.28.71-.37,1.22-.37-.03-.4-.03-.64,0-1.04,0-.4.03-.64.07-1.04" fill="#fff"
                            id="path762"
                            stroke-width="0" />
                    </g>
                    <g id="g764">
                        <path d="m787.99,247.96c.42.28.64.46,1.01.82.39.36.58.58.91,1.01-1.24.82-1.92,1.37-2.93,2.46-.86.89-1.37,1.34-1.96,2.47-.43.77-.43,1.86.07,2.45.64.75,1.16.82,1.86,1.37.49.4.77.63,1.25,1.06-.59.57-.92.91-1.43,1.53-.57.71-.86,1.15-1.31,1.92-1.04-1.39-1.53-1.99-2.08-2.78-.43-.58-1.27-.79-1.74.51-.34.88-.54,1.7-.71,2.81-.28,1.67-.37,2.56-.6,3.78-.67.1-1.07.1-1.76-.03-.71-.15-1.13-.33-1.74-.73.37-1.04.55-1.62.85-2.68.34-1.21.52-1.64.76-3.13.09-.51.15-1.06-.22-1.27-.59-.34-1.01-.03-1.59.73-.68.86-1.09,1.34-1.79,2.19-.46.58-.73.91-1.21,1.47-.65-.36-1-.61-1.52-1.13-.58-.57-.86-.95-1.25-1.68.97-.68,1.52-1.06,2.49-1.73,1.07-.73,1.8-1.18,2.77-1.86.3-.22.49-.52.39-.89-.15-.51-.86-.42-1.31-.34-.8.15-1.37.21-2.23.34-.67.09-1.03.13-1.67.22.01-.51.04-.79.07-1.29.07-.65.1-1.01.21-1.67,1.19.25,1.87.34,3.1.4,1.91.07,3.04.06,4.87-.46,1.53-.42,2.4-.79,3.72-1.65,1.12-.74,1.59-1.35,2.59-2.25.85-.76,1.31-1.21,2.14-1.98" fill="#ebbd00"
                            id="path766"
                            stroke-width="0" />
                    </g>
                    <g id="g768">
                        <path d="m829.21,262.88c-.21-.4-.34-.63-.63-.98-.33-.43-.54-.65-.95-1.01-.79.64-1.03,1.44-1.01,2.41.03,1.61.55,1.73,1.47,2.2-.13-.57-.09-.94.13-1.46.22-.55.48-.85.98-1.16" fill="#fff"
                            id="path770"
                            stroke-width="0" />
                    </g>
                    <g id="g772">
                        <path d="m836.47,268.41c.46,0,.73-.03,1.19-.12.39-.07.61-.13.98-.27-.01.7-.09,1.18-.54,1.71-.69.82-1.4,1.07-2.8,1.43.39-.39.58-.65.8-1.15.25-.58.36-.97.36-1.61" fill="#fff"
                            id="path774"
                            stroke-width="0" />
                    </g>
                    <g id="g776">
                        <path d="m843.6,264.29c.31-.27.46-.34.74-.6.31-.3.48-.49.74-.85.25.57.33.94.28,1.56-.07,1.15-.57,1.92-1.55,2.5.12-.48.15-.77.12-1.27-.05-.55-.13-.89-.34-1.35" fill="#fff"
                            id="path778"
                            stroke-width="0" />
                    </g>
                    <g id="g780">
                        <path d="m845.52,254.58c.77.09,1.28.34,1.77.95.67.82.79,1.68.43,2.65-.19-.54-.43-.83-.91-1.15-.42-.28-.71-.37-1.22-.37.03-.4.03-.64,0-1.04-.01-.4-.01-.64-.07-1.04" fill="#fff"
                            id="path782"
                            stroke-width="0" />
                    </g>
                    <g id="g784">
                        <path d="m827.94,247.96c-.42.28-.64.46-1,.82-.4.36-.59.58-.92,1.01,1.25.82,1.91,1.37,2.93,2.46.86.89,1.35,1.34,1.98,2.47.42.77.42,1.86-.09,2.45-.63.75-1.16.82-1.86,1.37-.49.4-.76.63-1.23,1.06.58.57.89.91,1.4,1.53.58.71.88,1.15,1.33,1.92,1.06-1.39,1.53-1.99,2.08-2.78.42-.58,1.27-.79,1.76.51.33.88.52,1.7.7,2.81.28,1.67.37,2.56.6,3.78.67.1,1.07.1,1.74-.03.73-.15,1.13-.33,1.74-.73-.36-1.04-.54-1.62-.85-2.68-.34-1.21-.49-1.64-.74-3.13-.09-.51-.16-1.06.21-1.27.61-.34,1.03-.03,1.62.73.67.86,1.07,1.34,1.77,2.19.48.58.73.91,1.21,1.47.65-.36,1-.61,1.52-1.13.58-.57.88-.95,1.25-1.68-.95-.68-1.52-1.06-2.49-1.73-1.09-.73-1.8-1.18-2.77-1.86-.3-.22-.49-.52-.39-.89.13-.51.86-.42,1.29-.34.82.15,1.38.21,2.25.34.65.09,1.03.13,1.67.22-.03-.51-.04-.79-.07-1.29-.06-.65-.1-1.01-.21-1.67-1.19.25-1.87.34-3.1.4-1.91.07-3.02.06-4.88-.46-1.5-.42-2.37-.79-3.71-1.65-1.12-.74-1.59-1.35-2.59-2.25-.85-.76-1.32-1.21-2.14-1.98" fill="#ebbd00"
                            id="path786"
                            stroke-width="0" />
                    </g>
                    <g id="g788">
                        <path d="m789.6,185.82c1.73.21,3.45.21,4.97.04,3.19-.36,5.02-1.19,7.59-3.07l.51.21c-1.56,2.74-3.62,4.11-6.74,4.47-2.53.3-5.86-.82-6.33-1.65" fill="#e30613"
                            id="path790"
                            stroke-width="0" />
                    </g>
                    <g id="g792">
                        <path d="m799.37,189.03c.88-1.09,1.35-1.7,2.2-2.8,1.1-1.41,1.71-2.23,2.78-3.69-.39-.15-.59-.24-.98-.37-1.73-.65-2.66-1.55-4.51-1.46-1.43.07-2.31.37-3.48,1.21.3-1.23.27-1.77.53-2.89.22-.95.37-1.38.98-2.23.7-.94,2.2-1.33,3.66-1.37,1.5-.05,2.5-.07,3.77.09-.13.64-.18,1.01-.19,1.67-.01,1.64.51,2.51,1.01,4.06.28.83.54,1.7.54,2.65-.8,1.06-1.31,1.62-2.31,2.51-1.38,1.24-2.59,2.16-4,2.62" fill="#ebbd00"
                            id="path794"
                            stroke-width="0" />
                    </g>
                    <g id="g796">
                        <path d="m809.4,177.19c-.21.19-.3.37-.31.64-.06.49.18.98.67,1.09.36.07.7-.03.88-.36.12-.22.13-.43.03-.65.42-.03.67,0,1.09.12.58.16.85.18,1.35.76.3.36-.06.91-.49,1.07-.49.21-1-.34-1.43-.21-.57.15-.45.85-1.65.7-1-.1-2.11-.77-1.93-1.87.09-.57-.7-.7-.46-1.4.15-.42.64-.55,1.07-.48.31.07.88.18,1.19.6" fill="#fff"
                            id="path798"
                            stroke-width="0" />
                    </g>
                </g>
            </g>
        </g>
        <g id="g800">
            <g clip-path="url(#clippath-2)">
                <g id="g802">
                    <g id="g808">
                        <path d="m461.04,559.02h55.77v-15.15h29.23v15.15h24.9v-15.15h29.23v15.15h24.9v-15.15h29.23v15.15h24.91v-15.15h29.23v15.15h24.9v-15.15h29.23v15.15h24.9v-15.15h29.25v15.15h55.75v101.77h-411.43v-101.77Z" fill="#000000"
                            id="path810"
                            stroke-width="0" />
                    </g>
                    <path d="m640.77,561.18h24.9v12.99h-24.9v-12.99Z" fill="#e30613"
                        id="path812" stroke-width="0" />
                    <path d="m613.7,561.18h24.9v12.99h-24.9v-12.99Z" fill="#e30613" id="path814"
                        stroke-width="0" />
                    <path d="m586.64,561.18h24.9v12.99h-24.9v-12.99Z" fill="#e30613"
                        id="path816" stroke-width="0" />
                    <path d="m559.57,561.18h24.9v12.99h-24.9v-12.99Z" fill="#e30613"
                        id="path818" stroke-width="0" />
                    <path d="m532.51,561.18h24.9v12.99h-24.9v-12.99Z" fill="#e30613"
                        id="path820" stroke-width="0" />
                    <path d="m505.44,561.18h24.9v12.99h-24.9v-12.99Z" fill="#e30613"
                        id="path822" stroke-width="0" />
                    <path d="m478.37,561.18h24.9v12.99h-24.9v-12.99Z" fill="#e30613"
                        id="path824" stroke-width="0" />
                    <path d="m667.84,561.18h24.9v12.99h-24.9v-12.99Z" fill="#e30613"
                        id="path826" stroke-width="0" />
                    <path d="m694.9,561.18h24.9v12.99h-24.9v-12.99Z" fill="#e30613" id="path828"
                        stroke-width="0" />
                    <path d="m721.97,561.18h24.9v12.99h-24.9v-12.99Z" fill="#e30613"
                        id="path830" stroke-width="0" />
                    <path d="m749.04,561.18h24.9v12.99h-24.9v-12.99Z" fill="#e30613"
                        id="path832" stroke-width="0" />
                    <path d="m776.1,561.18h24.9v12.99h-24.9v-12.99Z" fill="#e30613" id="path834"
                        stroke-width="0" />
                    <path d="m803.17,561.18h24.9v12.99h-24.9v-12.99Z" fill="#e30613"
                        id="path836" stroke-width="0" />
                    <path d="m830.25,561.18h24.9v12.99h-24.9v-12.99Z" fill="#e30613"
                        id="path838" stroke-width="0" />
                    <path d="m627.24,576.34h24.9v12.99h-24.9v-12.99Z" fill="#e30613"
                        id="path840" stroke-width="0" />
                    <path d="m600.17,576.34h24.9v12.99h-24.9v-12.99Z" fill="#e30613"
                        id="path842" stroke-width="0" />
                    <path d="m573.1,576.34h24.9v12.99h-24.9v-12.99Z" fill="#e30613" id="path844"
                        stroke-width="0" />
                    <path d="m546.04,576.34h24.9v12.99h-24.9v-12.99Z" fill="#e30613"
                        id="path846" stroke-width="0" />
                    <path d="m518.97,576.34h24.9v12.99h-24.9v-12.99Z" fill="#e30613"
                        id="path848" stroke-width="0" />
                    <path d="m491.91,576.34h24.9v12.99h-24.9v-12.99Z" fill="#e30613"
                        id="path850" stroke-width="0" />
                    <path d="m681.37,576.34h24.9v12.99h-24.9v-12.99Z" fill="#e30613"
                        id="path852" stroke-width="0" />
                    <path d="m708.44,576.34h24.9v12.99h-24.9v-12.99Z" fill="#e30613"
                        id="path854" stroke-width="0" />
                    <path d="m735.5,576.34h24.9v12.99h-24.9v-12.99Z" fill="#e30613" id="path856"
                        stroke-width="0" />
                    <path d="m762.57,576.34h24.9v12.99h-24.9v-12.99Z" fill="#e30613"
                        id="path858" stroke-width="0" />
                    <path d="m789.64,576.34h24.91v12.99h-24.91v-12.99Z" fill="#e30613"
                        id="path860" stroke-width="0" />
                    <path d="m816.72,576.34h24.9v12.99h-24.9v-12.99Z" fill="#e30613"
                        id="path862" stroke-width="0" />
                    <path d="m613.7,591.49h24.9v12.99h-24.9v-12.99Z" fill="#e30613" id="path864"
                        stroke-width="0" />
                    <path d="m586.64,591.49h24.9v12.99h-24.9v-12.99Z" fill="#e30613"
                        id="path866" stroke-width="0" />
                    <path d="m559.57,591.49h24.9v12.99h-24.9v-12.99Z" fill="#e30613"
                        id="path868" stroke-width="0" />
                    <path d="m532.51,591.49h24.9v12.99h-24.9v-12.99Z" fill="#e30613"
                        id="path870" stroke-width="0" />
                    <path d="m505.44,591.49h24.9v12.99h-24.9v-12.99Z" fill="#e30613"
                        id="path872" stroke-width="0" />
                    <path d="m694.9,591.49h24.9v12.99h-24.9v-12.99Z" fill="#e30613" id="path874"
                        stroke-width="0" />
                    <path d="m721.97,591.49h24.9v12.99h-24.9v-12.99Z" fill="#e30613"
                        id="path876" stroke-width="0" />
                    <path d="m749.04,591.49h24.9v12.99h-24.9v-12.99Z" fill="#e30613"
                        id="path878" stroke-width="0" />
                    <path d="m776.1,591.49h24.9v12.99h-24.9v-12.99Z" fill="#e30613" id="path880"
                        stroke-width="0" />
                    <path d="m803.17,591.49h24.9v12.99h-24.9v-12.99Z" fill="#e30613"
                        id="path882" stroke-width="0" />
                    <path d="m627.24,606.66h24.9v12.99h-24.9v-12.99Z" fill="#e30613"
                        id="path884" stroke-width="0" />
                    <path d="m600.17,606.66h24.9v12.99h-24.9v-12.99Z" fill="#e30613"
                        id="path886" stroke-width="0" />
                    <path d="m573.1,606.66h24.9v12.99h-24.9v-12.99Z" fill="#e30613" id="path888"
                        stroke-width="0" />
                    <path d="m546.04,606.66h24.9v12.99h-24.9v-12.99Z" fill="#e30613"
                        id="path890" stroke-width="0" />
                    <path d="m518.97,606.66h24.9v12.99h-24.9v-12.99Z" fill="#e30613"
                        id="path892" stroke-width="0" />
                    <path d="m681.37,606.66h24.9v12.99h-24.9v-12.99Z" fill="#e30613"
                        id="path894" stroke-width="0" />
                    <path d="m708.44,606.66h24.9v12.99h-24.9v-12.99Z" fill="#e30613"
                        id="path896" stroke-width="0" />
                    <path d="m735.5,606.66h24.9v12.99h-24.9v-12.99Z" fill="#e30613" id="path898"
                        stroke-width="0" />
                    <path d="m762.57,606.66h24.9v12.99h-24.9v-12.99Z" fill="#e30613"
                        id="path900" stroke-width="0" />
                    <path d="m789.64,606.66h24.91v12.99h-24.91v-12.99Z" fill="#e30613"
                        id="path902" stroke-width="0" />
                    <path d="m613.7,621.81h24.9v12.99h-24.9v-12.99Z" fill="#e30613" id="path904"
                        stroke-width="0" />
                    <path d="m586.64,621.81h24.9v12.99h-24.9v-12.99Z" fill="#e30613"
                        id="path906" stroke-width="0" />
                    <path d="m559.57,621.81h24.9v12.99h-24.9v-12.99Z" fill="#e30613"
                        id="path908" stroke-width="0" />
                    <path d="m694.9,621.81h24.9v12.99h-24.9v-12.99Z" fill="#e30613" id="path910"
                        stroke-width="0" />
                    <path d="m721.97,621.81h24.9v12.99h-24.9v-12.99Z" fill="#e30613"
                        id="path912" stroke-width="0" />
                    <path d="m749.04,621.81h24.9v12.99h-24.9v-12.99Z" fill="#e30613"
                        id="path914" stroke-width="0" />
                    <path d="m627.24,636.98h24.9v12.99h-24.9v-12.99Z" fill="#e30613"
                        id="path916" stroke-width="0" />
                    <path d="m600.17,636.98h24.9v12.99h-24.9v-12.99Z" fill="#e30613"
                        id="path918" stroke-width="0" />
                    <path d="m681.37,636.98h24.9v12.99h-24.9v-12.99Z" fill="#e30613"
                        id="path920" stroke-width="0" />
                    <path d="m708.44,636.98h24.9v12.99h-24.9v-12.99Z" fill="#e30613"
                        id="path922" stroke-width="0" />
                    <path d="m627.24,546.03h24.9v12.99h-24.9v-12.99Z" fill="#e30613"
                        id="path924" stroke-width="0" />
                    <path d="m573.1,546.03h24.9v12.99h-24.9v-12.99Z" fill="#e30613" id="path926"
                        stroke-width="0" />
                    <path d="m518.97,546.03h24.9v12.99h-24.9v-12.99Z" fill="#e30613"
                        id="path928" stroke-width="0" />
                    <path d="m681.37,546.03h24.9v12.99h-24.9v-12.99Z" fill="#e30613"
                        id="path930" stroke-width="0" />
                    <path d="m735.5,546.03h24.9v12.99h-24.9v-12.99Z" fill="#e30613" id="path932"
                        stroke-width="0" />
                    <path d="m789.64,546.03h24.91v12.99h-24.91v-12.99Z" fill="#e30613"
                        id="path934" stroke-width="0" />
                    <path d="m654.3,576.34h24.9v12.99h-24.9v-12.99Z" fill="#e30613" id="path936"
                        stroke-width="0" />
                    <g id="g938">
                        <path d="m666.76,574.17c16.15,0,29.23,13.08,29.23,29.23v57.39h-58.46v-57.39c0-16.15,13.08-29.23,29.23-29.23" fill="#000000"
                            id="path940"
                            stroke-width="0" />
                    </g>
                    <path d="m639.68,606.73h8.66v12.92h-8.66v-12.92Z" fill="#e30613"
                        id="path942" stroke-width="0" />
                    <path d="m639.68,621.81h8.66v12.99h-8.66v-12.99Z" fill="#e30613"
                        id="path944" stroke-width="0" />
                    <path d="m639.68,636.95h8.66v23.84h-8.66v-23.84Z" fill="#e30613"
                        id="path946" stroke-width="0" />
                    <g id="g948">
                        <path d="m643.37,589.75c2.51-4.29,6.18-7.83,10.57-10.19l4.05,8.75c-2.66,1.46-4.9,3.54-6.56,6.07l-8.05-4.63Z" fill="#e30613"
                            id="path950"
                            stroke-width="0" />
                    </g>
                    <g id="g952">
                        <path d="m650.32,596.25l-7.98-4.55c-1.71,3.54-2.65,7.52-2.65,11.7v1.09h8.65c0-2.96.71-5.76,1.98-8.23" fill="#e30613"
                            id="path954"
                            stroke-width="0" />
                    </g>
                    <path d="m685.17,606.73h8.65v12.92h-8.65v-12.92Z" fill="#e30613"
                        id="path956" stroke-width="0" />
                    <path d="m685.17,621.81h8.65v12.99h-8.65v-12.99Z" fill="#e30613"
                        id="path958" stroke-width="0" />
                    <path d="m685.17,636.95h8.65v23.84h-8.65v-23.84Z" fill="#e30613"
                        id="path960" stroke-width="0" />
                    <g id="g962">
                        <path d="m690.13,589.75c-2.5-4.29-6.18-7.83-10.55-10.19l-4.06,8.75c2.66,1.46,4.9,3.54,6.56,6.07l8.05-4.63Z" fill="#e30613"
                            id="path964"
                            stroke-width="0" />
                    </g>
                    <g id="g966">
                        <path d="m683.19,596.25l7.98-4.55c1.7,3.54,2.65,7.52,2.65,11.7v1.09h-8.65c0-2.96-.71-5.76-1.98-8.23" fill="#e30613"
                            id="path968"
                            stroke-width="0" />
                    </g>
                    <g id="g970">
                        <path d="m666.76,588.25c8.97,0,16.24,7.28,16.24,16.24v56.3h-32.49v-56.3c0-8.96,7.28-16.24,16.25-16.24" fill="#fff"
                            id="path972"
                            stroke-width="0" />
                    </g>
                    <g id="g974">
                        <path d="m666.76,576.34c-3.88,0-7.55.82-10.88,2.29l4.02,8.77c2.13-.85,4.44-1.31,6.86-1.31s4.72.46,6.85,1.31l4.03-8.77c-3.33-1.47-7.01-2.29-10.88-2.29" fill="#e30613"
                            id="path976"
                            stroke-width="0" />
                    </g>
                </g>
            </g>
        </g>
        <g id="g978">
            <g clip-path="url(#clippath-3)">
                <g id="g980">
                    <g id="g986">
                        <path d="m961.68,422.58c-4.96-3.35-11.68-2.04-15.02,2.92-2.59,3.84-2.4,8.69.16,12.28-.65,1.16-1.31,2.23-1.99,3.24,1.73-4.63.11-9.9-4.15-12.77-4.94-3.33-11.67-2.02-15.02,2.93-3.35,4.94-2.04,11.67,2.9,15.02,3.53,2.37,7.92,2.4,11.37.46-8.56,7.96-18.37,7.03-25,2.55-6.58-4.43-10.31-10.67-9.63-19.2,4.49,1.49,9.59-.12,12.35-4.23,3.35-4.96,2.04-11.68-2.92-15.02-4.94-3.35-11.68-2.04-15.02,2.92-2.75,4.08-2.35,9.35.65,12.96-7.65,3.84-14.85,2.72-21.42-1.7-6.64-4.48-11.16-13.48-6.93-24.44-.6,4.17,1.07,8.26,4.6,10.66,4.96,3.33,11.7,2.02,15.03-2.92,3.35-4.96,2.04-11.68-2.92-15.03-4.29-2.89-9.97-2.28-13.54,1.18.73-1.09,1.53-2.16,2.43-3.27,4.27,1.04,8.83-.61,11.43-4.47,3.35-4.96,2.02-11.68-2.92-15.03-4.96-3.33-11.68-2.03-15.03,2.92-2.57,3.84-2.37,8.69.18,12.28-.66,1.16-1.31,2.23-1.99,3.25,1.73-4.63.1-9.9-4.15-12.77-4.96-3.33-11.68-2.02-15.02,2.93-3.35,4.96-2.04,11.67,2.92,15.02,3.51,2.37,7.92,2.4,11.37.46-8.57,7.96-18.4,7.03-25.03,2.55-6.55-4.44-10.3-10.67-9.61-19.2,4.49,1.49,9.58-.12,12.35-4.23,3.35-4.96,2.04-11.68-2.9-15.02-4.96-3.35-11.7-2.04-15.03,2.92-2.75,4.08-2.35,9.35.65,12.98-7.65,3.83-14.84,2.72-21.42-1.71-6.65-4.48-11.16-13.48-6.95-24.44-.59,4.17,1.09,8.26,4.61,10.66,4.97,3.35,11.7,2.04,15.03-2.92,3.33-4.96,2.04-11.68-2.92-15.03-4.29-2.89-9.97-2.26-13.53,1.18.71-1.09,1.52-2.16,2.41-3.26,4.27,1.03,8.83-.63,11.43-4.48,3.33-4.96,2.04-11.68-2.92-15.03-4.96-3.33-11.68-2.02-15.02,2.92-2.59,3.84-2.38,8.69.16,12.28-.64,1.16-1.31,2.23-1.99,3.24,1.73-4.63.11-9.88-4.15-12.75-4.96-3.35-11.68-2.04-15.02,2.92-3.35,4.96-2.04,11.68,2.92,15.02,3.51,2.37,7.9,2.4,11.37.46-8.57,7.98-18.39,7.02-25.03,2.54-6.55-4.43-10.3-10.67-9.61-19.2,4.49,1.49,9.6-.12,12.35-4.23,3.35-4.96,2.04-11.68-2.92-15.02-4.94-3.35-11.68-2.04-15.03,2.92-2.74,4.08-2.34,9.35.68,12.98-7.67,3.82-14.85,2.72-21.43-1.71-6.65-4.48-11.16-13.48-6.93-24.44-.61,4.17,1.07,8.26,4.61,10.66,4.94,3.35,11.68,2.04,15.02-2.92,3.35-4.96,2.04-11.68-2.92-15.03-4.29-2.89-9.97-2.26-13.53,1.18.71-1.09,1.5-2.16,2.41-3.26,4.27,1.03,8.83-.62,11.43-4.48,3.35-4.96,2.04-11.68-2.92-15.03-4.96-3.33-11.68-2.02-15.02,2.93-2.59,3.82-2.4,8.68.16,12.28-.64,1.15-1.31,2.23-1.99,3.23,1.73-4.63.1-9.88-4.15-12.75-4.96-3.35-11.68-2.04-15.02,2.92-3.35,4.96-2.04,11.68,2.92,15.02,3.51,2.37,7.9,2.41,11.37.46-8.57,7.98-18.4,7.03-25.02,2.55-6.56-4.44-10.31-10.66-9.63-19.18,4.48,1.47,9.58-.12,12.35-4.24,3.35-4.94,2.04-11.67-2.9-15.02-4.97-3.35-11.7-2.04-15.03,2.92-2.75,4.08-2.37,9.36.65,12.98-7.63,3.83-14.85,2.72-21.42-1.71-6.64-4.48-11.16-13.48-6.95-24.44-.59,4.17,1.09,8.27,4.63,10.66,4.96,3.35,11.67,2.04,15.02-2.92,3.35-4.96,2.04-11.68-2.92-15.02-4.29-2.9-9.97-2.28-13.54,1.16.71-1.09,1.53-2.16,2.43-3.26,4.26,1.03,8.84-.63,11.43-4.48,3.35-4.96,2.04-11.68-2.92-15.03-4.96-3.33-11.68-2.02-15.02,2.93-2.59,3.83-2.38,8.68.16,12.28-.64,1.15-1.31,2.23-1.99,3.23,1.73-4.63.11-9.88-4.15-12.75-4.96-3.35-11.68-2.04-15.02,2.92-3.35,4.96-2.04,11.68,2.92,15.03,3.51,2.37,7.9,2.4,11.36.45-8.56,7.98-18.37,7.02-25,2.54-6.58-4.42-10.31-10.66-9.63-19.18,4.48,1.47,9.58-.12,12.35-4.23,3.35-4.96,2.04-11.68-2.92-15.03-4.96-3.33-11.68-2.04-15.02,2.93-2.75,4.06-2.35,9.35.65,12.96-7.65,3.82-14.85,2.72-21.42-1.71-6.65-4.48-11.16-13.48-6.93-24.44-.61,4.18,1.07,8.27,4.61,10.66,4.96,3.35,11.67,2.04,15.02-2.92,3.35-4.96,2.04-11.68-2.92-15.02-4.29-2.89-9.97-2.28-13.54,1.16.71-1.09,1.52-2.14,2.41-3.26,4.29,1.03,8.84-.62,11.44-4.48,3.33-4.96,2.04-11.68-2.92-15.02-4.96-3.35-11.68-2.04-15.03,2.92-2.57,3.82-2.38,8.68.18,12.28-.65,1.16-1.33,2.23-2.01,3.23,1.74-4.61.12-9.88-4.14-12.75-4.96-3.35-11.68-2.04-15.02,2.92-3.35,4.96-2.04,11.68,2.92,15.03,3.51,2.37,7.9,2.4,11.36.45-8.56,7.98-18.38,7.03-25,2.56-6.58-4.43-10.31-10.67-9.63-19.2,4.48,1.47,9.59-.12,12.35-4.23,3.33-4.96,2.04-11.68-2.92-15.03-4.96-3.33-11.68-2.02-15.03,2.93-2.74,4.06-2.35,9.35.67,12.96-7.65,3.83-14.85,2.72-21.42-1.71-6.64-4.48-11.16-13.47-6.95-24.44-.59,4.18,1.09,8.27,4.63,10.67,4.94,3.33,11.67,2.02,15.02-2.93,3.35-4.96,2.04-11.68-2.92-15.02-4.29-2.89-9.99-2.28-13.54,1.18.71-1.1,1.53-2.16,2.43-3.27,4.26,1.03,8.83-.63,11.43-4.48,3.35-4.96,2.02-11.67-2.92-15.02-4.96-3.35-11.68-2.04-15.03,2.92-2.59,3.83-2.37,8.69.18,12.28-.65,1.16-1.32,2.23-2.01,3.24,1.73-4.63.12-9.9-4.14-12.77-4.96-3.33-11.68-2.02-15.02,2.92-3.35,4.96-2.04,11.68,2.92,15.03,3.51,2.37,7.9,2.4,11.36.46-8.56,7.96-18.38,7.01-25,2.55-6.58-4.44-10.31-10.67-9.63-19.2,4.48,1.49,9.58-.12,12.35-4.23,3.35-4.96,2.04-11.68-2.92-15.02-4.96-3.35-11.68-2.04-15.03,2.92-2.74,4.08-2.34,9.35.67,12.96-7.65,3.82-14.85,2.72-21.42-1.71-6.65-4.48-11.16-13.47-6.95-24.42-.6,4.17,1.09,8.26,4.61,10.66,4.97,3.33,11.68,2.02,15.03-2.93,3.33-4.94,2.04-11.67-2.92-15.02-4.29-2.89-9.99-2.28-13.54,1.18.71-1.09,1.52-2.16,2.41-3.27,4.27,1.04,8.84-.61,11.45-4.48,3.33-4.94,2.04-11.67-2.93-15.02l-60.25,89.33,528.87,356.71,60.22-89.34Z" fill="#000000"
                            id="path988"
                            stroke-width="0" />
                    </g>
                    <g id="g990">
                        <path d="m941.29,453.85l-38.81,57.55L373.71,154.74l38.81-57.54c-1.9,10.31,1.83,20.67,10.23,26.34,7.83,5.31,15.87,6.55,24.35,3.69.97,8.48,4,15.42,11.64,20.6,9.5,6.43,19.73,6.55,29.38.34-1.9,10.33,1.79,20.66,10.17,26.33,7.86,5.31,15.88,6.55,24.38,3.69.95,8.48,4,15.42,11.64,20.6,9.47,6.43,19.73,6.53,29.36.34-1.91,10.31,1.79,20.66,10.18,26.33,7.84,5.31,15.87,6.55,24.35,3.69.97,8.48,4.02,15.42,11.64,20.6,9.5,6.43,19.75,6.53,29.38.34-1.9,10.31,1.79,20.66,10.18,26.33,7.84,5.3,15.88,6.53,24.36,3.69.95,8.48,4,15.42,11.64,20.6,9.48,6.41,19.73,6.53,29.36.34-1.91,10.31,1.8,20.64,10.17,26.33,7.86,5.3,15.89,6.53,24.38,3.69.95,8.48,3.99,15.42,11.64,20.58,9.47,6.41,19.71,6.52,29.33.33-1.91,10.33,1.83,20.67,10.21,26.36,7.83,5.3,15.88,6.53,24.35,3.69.97,8.47,4,15.42,11.64,20.58,9.5,6.41,19.72,6.52,29.35.33-1.9,10.31,1.83,20.67,10.19,26.34,7.86,5.31,15.9,6.55,24.36,3.71.97,8.47,4,15.42,11.65,20.58,9.45,6.39,19.62,6.46,29.26.27" fill="#159a34"
                            id="path992"
                            stroke-width="0" />
                    </g>
                </g>
            </g>
        </g>
        <g id="g994">
            <g clip-path="url(#clippath-4)">
                <g id="g996">
                    <g id="g1002">
                        <path d="m664.08,254.74c2.99-4.43,1.82-10.46-2.62-13.45-4.42-2.99-10.45-1.81-13.45,2.62-2.98,4.43-1.82,10.46,2.62,13.45,4.44,2.99,10.46,1.81,13.45-2.62" fill="#159a34"
                            id="path1004"
                            stroke-width="0" />
                    </g>
                    <g id="g1006">
                        <path d="m690.08,272.28c2.99-4.43,1.83-10.46-2.6-13.45-4.44-2.99-10.46-1.81-13.45,2.62-2.99,4.43-1.83,10.45,2.62,13.45,4.43,2.99,10.46,1.81,13.44-2.62" fill="#159a34"
                            id="path1008"
                            stroke-width="0" />
                    </g>
                    <g id="g1010">
                        <path d="m699.95,278.94c2.99-4.43,9.02-5.61,13.45-2.62,4.43,3.01,5.61,9.02,2.62,13.45-2.99,4.43-9.03,5.61-13.45,2.62-4.44-2.99-5.6-9.02-2.62-13.45" fill="#159a34"
                            id="path1012"
                            stroke-width="0" />
                    </g>
                    <g id="g1014">
                        <path d="m739.63,305.69c2.99-4.43,1.82-10.46-2.62-13.45-4.43-2.99-10.46-1.81-13.45,2.62-2.99,4.43-1.82,10.46,2.62,13.45,4.44,2.99,10.46,1.81,13.45-2.62" fill="#159a34"
                            id="path1016"
                            stroke-width="0" />
                    </g>
                    <g id="g1018">
                        <path d="m765.63,323.23c2.99-4.43,1.82-10.46-2.6-13.45-4.45-2.99-10.46-1.81-13.47,2.62-2.98,4.43-1.8,10.46,2.63,13.45,4.42,2.99,10.45,1.81,13.44-2.62" fill="#159a34"
                            id="path1020"
                            stroke-width="0" />
                    </g>
                    <g id="g1022">
                        <path d="m775.5,329.9c2.99-4.43,9.02-5.61,13.45-2.62,4.43,2.99,5.61,9.02,2.62,13.45-2.99,4.43-9.02,5.61-13.45,2.62-4.44-2.99-5.6-9.02-2.62-13.45" fill="#159a34"
                            id="path1024"
                            stroke-width="0" />
                    </g>
                    <g id="g1026">
                        <path d="m815.18,356.65c2.99-4.43,1.82-10.46-2.62-13.45-4.43-2.99-10.46-1.81-13.45,2.62-2.98,4.43-1.82,10.46,2.62,13.45,4.44,2.99,10.46,1.81,13.45-2.62" fill="#159a34"
                            id="path1028"
                            stroke-width="0" />
                    </g>
                    <g id="g1030">
                        <path d="m841.17,374.19c2.99-4.43,1.83-10.46-2.6-13.45-4.44-2.99-10.46-1.81-13.45,2.62-2.99,4.43-1.82,10.46,2.62,13.45,4.44,2.99,10.45,1.81,13.44-2.62" fill="#159a34"
                            id="path1032"
                            stroke-width="0" />
                    </g>
                    <g id="g1034">
                        <path d="m851.04,380.85c2.99-4.43,9.03-5.61,13.45-2.62,4.43,2.99,5.63,9.02,2.62,13.45-2.99,4.43-9.02,5.61-13.45,2.62-4.44-2.99-5.6-9.02-2.62-13.45" fill="#159a34"
                            id="path1036"
                            stroke-width="0" />
                    </g>
                    <g id="g1038">
                        <path d="m588.53,203.78c2.99-4.43,1.83-10.46-2.62-13.45-4.42-2.99-10.45-1.81-13.44,2.62-2.99,4.43-1.83,10.45,2.6,13.45,4.45,2.99,10.48,1.81,13.45-2.62" fill="#159a34"
                            id="path1040"
                            stroke-width="0" />
                    </g>
                    <g id="g1042">
                        <path d="m614.54,221.32c2.99-4.43,1.82-10.46-2.62-13.45-4.43-2.99-10.45-1.81-13.45,2.62-2.98,4.43-1.82,10.46,2.62,13.45,4.44,2.99,10.46,1.81,13.45-2.62" fill="#159a34"
                            id="path1044"
                            stroke-width="0" />
                    </g>
                </g>
            </g>
        </g>
        <g id="g1046">
            <g clip-path="url(#clippath-5)">
                <g id="g1048">
                    <g id="g1054">
                        <path d="m624.41,227.98c2.99-4.43,9.02-5.61,13.45-2.62,4.43,3.01,5.6,9.02,2.6,13.45-2.98,4.43-9,5.61-13.44,2.62-4.44-2.99-5.61-9.02-2.62-13.45" fill="#159a34"
                            id="path1056"
                            stroke-width="0" />
                    </g>
                    <g id="g1058">
                        <path d="m512.98,152.82c2.99-4.43,1.82-10.46-2.62-13.45-4.42-2.99-10.45-1.81-13.45,2.62-2.99,4.43-1.82,10.46,2.62,13.45,4.44,2.99,10.46,1.81,13.45-2.62" fill="#159a34"
                            id="path1060"
                            stroke-width="0" />
                    </g>
                </g>
            </g>
        </g>
        <g id="g1062">
            <g clip-path="url(#clippath-6)">
                <g id="g1064">
                    <g id="g1070">
                        <path d="m538.99,170.36c2.99-4.43,1.82-10.46-2.6-13.45-4.45-2.99-10.46-1.81-13.45,2.62-2.99,4.43-1.83,10.45,2.6,13.45,4.44,2.99,10.46,1.81,13.45-2.62" fill="#159a34"
                            id="path1072"
                            stroke-width="0" />
                    </g>
                    <g id="g1074">
                        <path d="m548.86,177.02c2.99-4.43,9.02-5.61,13.45-2.62,4.43,2.99,5.6,9.02,2.62,13.45-2.99,4.43-9.02,5.61-13.45,2.62-4.44-2.99-5.61-9.02-2.62-13.45" fill="#159a34"
                            id="path1076"
                            stroke-width="0" />
                    </g>
                    <g id="g1078">
                        <path d="m583.32,168.73c4.43,2.99,5.61,9.02,2.62,13.45-3.01,4.43-9.02,5.61-13.45,2.62-4.43-3.01-5.61-9.02-2.62-13.45,2.99-4.44,9.02-5.61,13.45-2.62" fill="#159a34"
                            id="path1080"
                            stroke-width="0" />
                    </g>
                    <g id="g1082">
                        <path d="m658.86,219.69c4.43,2.99,5.61,9.02,2.62,13.45-2.99,4.43-9.02,5.6-13.45,2.6-4.43-2.99-5.61-9-2.62-13.44,3.01-4.44,9.02-5.61,13.45-2.62" fill="#159a34"
                            id="path1084"
                            stroke-width="0" />
                    </g>
                    <g id="g1086">
                        <path d="m734.4,270.65c-4.43-2.99-10.45-1.82-13.44,2.62-2.99,4.43-1.83,10.45,2.6,13.44,4.45,2.99,10.46,1.83,13.45-2.6,2.99-4.44,1.83-10.46-2.62-13.45" fill="#159a34"
                            id="path1088"
                            stroke-width="0" />
                    </g>
                </g>
            </g>
        </g>
        <g id="g1090">
            <g clip-path="url(#clippath-7)">
                <g id="g1092">
                    <g id="g1098">
                        <path d="m809.95,321.61c-4.43-2.99-10.45-1.82-13.45,2.62-2.98,4.43-1.81,10.45,2.62,13.45,4.43,2.99,10.46,1.82,13.45-2.62,2.99-4.44,1.81-10.46-2.62-13.45" fill="#159a34"
                            id="path1100"
                            stroke-width="0" />
                    </g>
                    <g id="g1102">
                        <path d="m885.5,372.56c-4.43-2.99-10.45-1.82-13.44,2.62-3.01,4.43-1.83,10.45,2.61,13.45,4.45,2.98,10.46,1.82,13.45-2.62,2.99-4.44,1.83-10.46-2.62-13.45" fill="#159a34"
                            id="path1104"
                            stroke-width="0" />
                    </g>
                    <g id="g1106">
                        <path d="m949.58,440.52c-.79-.54-1.49-1.16-2.1-1.85-9.44,16.91-23.87,17.64-33.13,11.4-6.89-4.64-10.94-11.37-10.09-20.48-.57-.24-1.12-.55-1.62-.89-.55-.37-1.03-.76-1.47-1.21-8.13,4.18-15.91,2.96-22.79-1.7-9.27-6.24-13.99-19.9-1.86-34.99-.83-.3-1.71-.73-2.5-1.25-.79-.54-1.49-1.16-2.08-1.85-9.45,16.91-23.89,17.65-33.15,11.4-6.89-4.64-10.92-11.37-10.07-20.46-.57-.25-1.1-.55-1.62-.91-.57-.37-1.03-.76-1.47-1.21-8.13,4.2-15.91,2.96-22.79-1.68-9.27-6.25-13.99-19.91-1.86-35-.85-.3-1.71-.71-2.5-1.25s-1.49-1.15-2.08-1.83c-9.44,16.89-23.87,17.64-33.13,11.39-6.91-4.64-10.94-11.36-10.09-20.46-.57-.25-1.1-.55-1.62-.91-.55-.37-1.03-.76-1.47-1.21-8.13,4.2-15.91,2.96-22.79-1.68-9.27-6.25-14.01-19.91-1.86-34.99-.85-.31-1.71-.73-2.49-1.25-.79-.54-1.5-1.16-2.1-1.85-9.45,16.89-23.87,17.64-33.15,11.39-6.89-4.64-10.92-11.36-10.07-20.46-.57-.25-1.1-.55-1.62-.91-.55-.37-1.03-.76-1.47-1.21-8.14,4.2-15.91,2.96-22.8-1.68-9.26-6.25-13.97-19.91-1.85-34.99-.85-.31-1.71-.73-2.5-1.25-.79-.54-1.49-1.16-2.08-1.85-9.44,16.89-23.89,17.64-33.14,11.39-6.89-4.64-10.92-11.35-10.08-20.46-.55-.25-1.1-.55-1.62-.91-.57-.37-1.03-.76-1.49-1.21-8.13,4.2-15.89,2.96-22.79-1.68-9.26-6.25-13.97-19.91-1.85-34.99-.85-.3-1.71-.73-2.5-1.25-.79-.54-1.49-1.16-2.08-1.85-9.45,16.89-23.89,17.64-33.14,11.4-6.89-4.66-10.93-11.37-10.08-20.48-.57-.25-1.1-.55-1.64-.91s-1.01-.76-1.47-1.19c-8.13,4.18-15.89,2.95-22.79-1.7-9.26-6.24-13.97-19.91-1.85-34.99-.85-.3-1.71-.73-2.5-1.25-.79-.53-1.49-1.16-2.08-1.85-9.45,16.91-23.89,17.64-33.14,11.4-6.89-4.66-10.92-11.37-10.08-20.48-.57-.24-1.1-.55-1.64-.89-.55-.37-1.01-.76-1.47-1.21-8.13,4.18-15.89,2.96-22.79-1.68-9.27-6.25-13.97-19.91-1.85-35-.85-.3-1.71-.73-2.5-1.25l-5.98,8.89c-4.66,11.27-.74,23.81,8.51,30.05,7.84,5.28,15.66,6.21,24.29,2.8.46,8.96,3.87,16.21,11.71,21.49,9.26,6.25,22.38,5.19,31.05-3.35-4.64,11.25-.76,23.77,8.5,30.02,7.84,5.28,15.66,6.21,24.29,2.8.48,8.95,3.89,16.21,11.71,21.49,9.27,6.24,22.38,5.19,31.06-3.36-4.66,11.27-.77,23.78,8.48,30.03,7.84,5.28,15.66,6.21,24.29,2.78.48,8.96,3.88,16.22,11.71,21.51,9.27,6.24,22.38,5.19,31.06-3.36-4.64,11.27-.77,23.78,8.48,30.03,7.84,5.28,15.67,6.21,24.29,2.78.48,8.96,3.89,16.21,11.73,21.49,9.24,6.25,22.37,5.21,31.05-3.35-4.66,11.27-.79,23.78,8.48,30.03,7.84,5.28,15.67,6.21,24.29,2.78.48,8.96,3.88,16.21,11.71,21.49,9.27,6.25,22.35,5.18,31.03-3.38-4.64,11.27-.74,23.81,8.51,30.05,7.84,5.3,15.67,6.22,24.29,2.8.48,8.96,3.87,16.21,11.71,21.49,9.26,6.25,22.34,5.18,31.03-3.38-4.64,11.27-.74,23.81,8.51,30.05,7.84,5.3,15.67,6.21,24.3,2.8.46,8.96,3.87,16.21,11.7,21.49,9.27,6.25,22.4,5.19,31.06-3.36,0,0,6.15-8.77,5.97-8.9" fill="#159a34"
                            id="path1108"
                            stroke-width="0" />
                    </g>
                </g>
            </g>
        </g>
        <g id="g1110">
            <path d="m461.04,423.67h409.87v3.24h-409.87v-3.24Z" fill="#000000" id="path1112"
                stroke-width="0" />
        </g>
        <g id="g1114">
            <g clip-path="url(#clippath-8)">
                <g id="g1116">
                    <g id="g1122">
                        <path d="m666.54,650.33c-65.22,0-127.21-31.07-165.81-83.11-26.17-35.29-40.58-78.99-40.58-123.05l.84-44.67v-.12s.01-247.45.01-247.45l411.46-.04.05,247.63v.33s.74,18.56.74,18.56l-.1,26.16c.01,4.54-.15,9.22-.49,14.29-.33,4.97-.86,10.01-1.56,14.98-4.8,34-18.35,66.53-39.2,94.09-39.06,51.63-100.8,82.46-165.17,82.46l-.21-.05Zm-202.2-206.08c0,111.61,90.8,202.42,202.42,202.42s202.42-90.8,202.42-202.42V155.18l-404.84.05v289.02Z" fill-rule="evenodd"
                            stroke-width="0" />
                        <path d="m666.76,646.72c-111.82,0-202.47-90.65-202.47-202.47V155.18h404.94v289.07c0,111.82-90.65,202.47-202.47,202.47m-.21,3.56c-67.76,0-128.3-32.55-165.78-83.09-25.37-34.21-40.57-77.16-40.57-123.02l.84-44.67v-.12s.01-247.45.01-247.45h411.41v247.91s.74,18.56.74,18.56l-.1,26.15c.01,4.84-.17,9.53-.49,14.29-.34,5.05-.86,10.03-1.56,14.97-4.94,35-18.8,67.11-39.19,94.06-37.73,49.89-97.85,82.44-165.13,82.44" fill-rule="evenodd"
                            id="path1124"
                            stroke-width="0" />
                    </g>
                    <g id="g1126">
                        <path d="m624.68,442.59c4.23-1.95,6.4-2.93,10.61-4.48.7-.25,1.21-.57,1.79-.63,4.79-.53,7.29-.67,11.97-.83,3.14-.12,4.79-.09,8.05-.09,1.04,0,1.77-.03,2.61.6,2.78,2.1,4.76,3.81,7.8,6.28,3.04,2.46,4.75,3.85,7.75,6.34-.27,1.82-.58,2.83-1.34,4.48-.86,1.85-1.52,2.84-2.9,4.35,1.96-1.49,3.08-3.2,4.47-5.66.79-1.41,1.09-2.23,1.68-3.83.25-.65.67-1.01,1.68-.67,6.47,2.16,12.47,4.27,20.78,4.97,1.43.12,2.07.25,3.66.21.76-.03,1.47.11,2.16.42,3.74,1.7,5.91,2.72,9.44,4.88,4.05,2.5,7.83,4.51,11.46,8.48,3.2,3.5,5.28,5.07,9.41,7.07,2.89,1.38,4.21,1.31,7.8,2.53.61.21.79.42,1.01,1.31,1.13,4.42,1.56,7.07,2.56,11.59,1,4.47,1.55,6.99,2.55,11.46,2.59,2.98,4.33,4.48,7.65,6.62,2.68,1.71,4.32,2.53,7.29,3.62,1.27,7.09,1.7,11.15,1.95,18.34.16,4.48.15,7.03-.07,11.51-.48,1.8-1.09,2.65-2.84,3.84-1.12.76-2.81.92-3.69.92h-24.84c-1.76-1.46-2.38-3.38-1.79-5.58.52-1.98,1.55-3.19,3.6-3.8,2.1-.64,4.05-.7,6.41-.7,0-1.93-.37-4.67-1.19-6.24-.55-1.07-1.23-1.46-2.23-2.14-5.43-3.72-8.22-5.86-12.56-9.36-2.65-2.13-3.71-3.32-5.94-5.6-.16-.76-.25-1.19-.43-1.95-.11-.45-.15-.68-.24-1.13.54-.79.8-1.27,1.18-2.16.52-1.22.73-1.96.88-3.27-.43,1.55-.79,2.4-1.59,3.78-.33.55-.51.85-.88,1.35.97,3.94,1.39,6.21,1.89,10.24.4,3.25.54,5.09.63,8.35-2.1,4-3.78,6.44-6.58,10.79-1.38,2.17-3.41,4.54-5.22,6.49-1,1.07-2.53.92-3.96.92h-25.2c-1.37-1.12-2.08-2.31-2.08-4.02,0-2.75,1.56-5.24,4.99-6.16,1.49-.42,3.5-.51,5.11-.31.25-1.35.36-2.13.45-3.5.12-1.43,0-1.98.1-3.66.03-.73-.13-1.21-.58-1.77-1.7-2.2-3.59-4.3-5.03-7.52-.64-1.43-.95-2.26-1.39-3.78-4.12-.49-6.44-.8-10.55-1.44-3.53-.54-5.52-.86-9.05-1.52-2.96-2.31-5.98-4.12-8.56-4.84-.46-.13-.92-.13-1.52-.16-.51-.92-.77-1.46-1.13-2.46-.33-.97-.64-2.23-1.15-5.43.09,3.88.85,6.61,1.93,9.7,1.16,3.3,1.35,4.17,2.57,8.2.27.91.19,1.49,0,2.41-1.06,5.02-1.65,7.23-3.02,11.76-1.46,4.81-2.54,8.44-4.32,12.13-.49,1.04-1.31,2.37-2.4,2.37h-26.71c-.89-1.31-1.53-3.2-1.4-4.81.1-1.29.64-2.62,1.56-3.54.89-.88,3.87-2.98,8.35-3.66-.05-4.9-.19-7.17-.25-11.76-.06-4.76-.06-7.46,0-12.22-1.4-1.92-1.62-2.62-2.32-4.43-.73-1.89-1.03-3.04-1.31-5.06-.09,1.76,0,2.77.37,4.46.46,2.03,1.19,3.38,1.99,4.91-3.68,3.39-5.91,5.18-10.03,8.04-3.51,2.43-5.58,3.69-9.36,5.69-.25,1.76-.3,2.28-.92,3.33-.88,1.46-2.5,2.49-3.59,2.49h-21.86c-1.52,0-3.38-5.48-1.71-7.26,3.47-3.74,5.36-5.89,8.42-9.94,2.43-3.2,3.97-5.55,5.85-8.45,1.62-2.51,5.19-3.57,8.77-5.4,3.15-1.62,5-2.41,8.36-3.57,0,0,.46-2.83-.33-2.83-.83.06-3.15.16-5.06-.21-2.72-.52-4.7-1.12-7.61-2.16-2.9-1.04-4.51-1.74-7.25-3.17-2.32-.04-3.65-.12-5.95-.33-2.14-.21-3.36-.36-5.48-.71,0,0-1.03-3.42.12-3.57.76-.09,1.18-.15,1.93-.3.85-.16,2.2.21,2.16-.49-1.76.09-2.65.13-4.51.18-1.06.03-2.23.03-3.51.07-.49,0-1.8-1.38-3.2-2.8-1.49-1.55-3.15-2.83-3.2-3.56-.06-.79.06-3.71.06-3.71-.55-.76-.04-1.77.79-1.67,1.5-.37,3.97-.91,3.97-.91,1.88-1.73,3.32-2.95,5.27-4.52,2.22-1.77,3.47-2.65,5.79-4.18.83-3.69.97-6.49,3.27-6.98,3.21-.7,6.52-1.27,11.67-1.39.64-1.98,1.32-3.26,3.09-4.35,2.26-1.38,5.77-1.41,8.05-1.34,2.04,2.4,3.77,5.19,4.29,9.14.34,2.5-.19,4.24-.88,6.4.54-.8.89-1.27,1.15-2.19,1.15-4.24-.48-9.61-1.55-12.83-.13-.39,5.48-1.44,11.12-4.05" fill="#000000"
                            id="path1128"
                            stroke-width="0" />
                    </g>
                    <g id="g1130">
                        <path d="m736.16,540.82c-.05,1.13.39,2.4,1.61,2.43.48.02.53-.16.76-.42.34-.36.15-.76.33-1.22.31-.85.76-1.03,1.19-1.99.18-.37-.16-.88-.58-.89-.58-.03-.82-.04-1.53-.16-.98-.16-1.71,1.15-1.77,2.26" fill="#fff"
                            id="path1132"
                            stroke-width="0" />
                    </g>
                    <g id="g1134">
                        <path d="m740.11,540.82c-.06,1.13.37,2.4,1.61,2.43.48.02.53-.16.76-.42.33-.36.13-.76.33-1.22.31-.85.76-1.03,1.19-1.99.18-.37-.16-.88-.58-.89-.59-.03-.82-.04-1.52-.16-1-.16-1.74,1.15-1.79,2.26" fill="#fff"
                            id="path1136"
                            stroke-width="0" />
                    </g>
                    <g id="g1138">
                        <path d="m683.05,540.82c-.04,1.13.39,2.4,1.61,2.43.48.02.53-.16.77-.42.33-.36.13-.76.31-1.22.31-.85.76-1.03,1.19-1.99.18-.37-.16-.88-.58-.89-.58-.03-.82-.04-1.52-.16-1-.16-1.73,1.15-1.79,2.26" fill="#fff"
                            id="path1140"
                            stroke-width="0" />
                    </g>
                    <g id="g1142">
                        <path d="m687.01,540.82c-.06,1.13.39,2.4,1.61,2.43.48.02.53-.16.74-.42.34-.36.16-.76.34-1.22.31-.85.76-1.03,1.19-1.99.18-.37-.16-.88-.58-.89-.6-.03-.82-.04-1.52-.16-1-.16-1.73,1.15-1.79,2.26" fill="#fff"
                            id="path1144"
                            stroke-width="0" />
                    </g>
                    <g id="g1146">
                        <path d="m620.96,540.82c-.06,1.13.39,2.4,1.61,2.43.48.02.53-.16.76-.42.34-.36.15-.76.33-1.22.31-.85.76-1.03,1.19-1.99.18-.37-.16-.88-.58-.89-.58-.03-.82-.04-1.52-.16-1-.16-1.73,1.15-1.79,2.26" fill="#fff"
                            id="path1148"
                            stroke-width="0" />
                    </g>
                    <g id="g1150">
                        <path d="m624.91,540.82c-.06,1.13.37,2.4,1.61,2.43.48.02.53-.16.76-.42.34-.36.13-.76.33-1.22.31-.85.76-1.03,1.19-1.99.18-.37-.16-.88-.58-.89-.58-.03-.82-.04-1.53-.16-.98-.16-1.71,1.15-1.77,2.26" fill="#fff"
                            id="path1152"
                            stroke-width="0" />
                    </g>
                    <g id="g1154">
                        <path d="m581.43,525.13c-.06,1.13.37,2.4,1.61,2.43.48.02.53-.16.76-.42.33-.36.13-.76.33-1.22.31-.85.74-1.03,1.19-1.99.18-.37-.16-.88-.58-.89-.59-.03-.82-.04-1.53-.16-1-.16-1.73,1.15-1.77,2.26" fill="#fff"
                            id="path1156"
                            stroke-width="0" />
                    </g>
                    <g id="g1158">
                        <path d="m585.38,525.13c-.06,1.13.39,2.4,1.61,2.43.48.02.53-.16.76-.42.33-.36.15-.76.33-1.22.31-.85.76-1.03,1.19-1.99.18-.37-.16-.88-.58-.89-.58-.03-.82-.04-1.52-.16-1-.16-1.73,1.15-1.79,2.26" fill="#fff"
                            id="path1160"
                            stroke-width="0" />
                    </g>
                    <g id="g1162">
                        <path d="m582.97,526.73c.12-.61.22-.95.51-1.52.28-.59.49-.91.92-1.4,0,0-.97.03-1.55-.15-.45.36-.64.73-.7,1.31-.06.76.09,1.52.82,1.76" fill="#fff" fill-rule="evenodd"
                            id="path1164"
                            stroke-width="0" />
                    </g>
                    <g id="g1166">
                        <path d="m586.93,526.73c.1-.61.22-.95.49-1.52.3-.59.51-.91.94-1.4,0,0-.97.03-1.55-.15-.45.36-.64.73-.7,1.31-.07.76.09,1.52.82,1.76" fill="#fff" fill-rule="evenodd"
                            id="path1168"
                            stroke-width="0" />
                    </g>
                    <g id="g1170">
                        <path d="m622.51,542.42c.1-.61.22-.95.51-1.52.28-.59.49-.91.92-1.4,0,0-.95.03-1.55-.15-.45.37-.64.73-.7,1.31-.07.76.09,1.52.82,1.76" fill="#fff" fill-rule="evenodd"
                            id="path1172"
                            stroke-width="0" />
                    </g>
                    <g id="g1174">
                        <path d="m626.46,542.42c.12-.61.24-.95.49-1.52.3-.59.51-.91.94-1.4,0,0-.95.03-1.55-.15-.45.37-.64.73-.7,1.31-.07.76.09,1.52.82,1.76" fill="#fff" fill-rule="evenodd"
                            id="path1176"
                            stroke-width="0" />
                    </g>
                    <g id="g1178">
                        <path d="m684.6,542.42c.12-.61.22-.95.51-1.52.28-.59.49-.91.92-1.4,0,0-.95.03-1.55-.15-.45.37-.64.73-.7,1.31-.06.76.09,1.52.82,1.76" fill="#fff" fill-rule="evenodd"
                            id="path1180"
                            stroke-width="0" />
                    </g>
                    <g id="g1182">
                        <path d="m688.56,542.42c.1-.61.22-.95.51-1.52.27-.59.49-.91.92-1.4,0,0-.95.03-1.55-.15-.45.37-.64.73-.7,1.31-.07.76.09,1.52.82,1.76" fill="#fff" fill-rule="evenodd"
                            id="path1184"
                            stroke-width="0" />
                    </g>
                    <g id="g1186">
                        <path d="m737.71,542.42c.12-.61.22-.95.51-1.52.28-.59.48-.91.92-1.4,0,0-.95.03-1.55-.15-.45.37-.64.73-.7,1.31-.06.76.07,1.52.82,1.76" fill="#fff" fill-rule="evenodd"
                            id="path1188"
                            stroke-width="0" />
                    </g>
                    <g id="g1190">
                        <path d="m741.66,542.42c.12-.61.22-.95.51-1.52.28-.59.49-.91.92-1.4,0,0-.97.03-1.53-.15-.46.37-.65.73-.71,1.31-.06.76.09,1.52.82,1.76" fill="#fff" fill-rule="evenodd"
                            id="path1192"
                            stroke-width="0" />
                    </g>
                    <g id="g1194">
                        <path d="m592.01,459.67c-.68,1.16-.89,2.05-.76,3.39.18,1.82.86,2.98,2.34,4.03v-1.43c.39.03.63.03,1.03,0,.67-.06,1.04-.15,1.67-.39-1.03-.57-1.56-1.01-2.34-1.89-1.07-1.24-1.55-2.13-1.93-3.72" fill="#fff"
                            id="path1196"
                            stroke-width="0" />
                    </g>
                    <g id="g1198">
                        <path d="m592.1,461.89c.21.64.4.98.79,1.52.49.67.88,1.01,1.58,1.44-.39.07-.61.09-1,.05-.34-.01-.54-.06-.86-.16-.16-.31-.24-.49-.33-.82-.22-.76-.27-1.23-.18-2.02" fill="#fff"
                            id="path1200"
                            stroke-width="0" />
                    </g>
                </g>
            </g>
        </g>
        <g id="g1202">
            <path d="m464.34,156.81v1.77s386.19,261.39,386.19,261.39l5.49,3.71h2.63l-7.3-4.93L464.34,156.81Z" fill="#fff"
                id="path1204"
                stroke-width="0" />
        </g>
        <g id="g1206">
            <path d="m463.08,154.76l-.56.83,399,270.01.54-.83L463.08,154.76Z" fill="#000000"
                id="path1208" stroke-width="0" />
        </g>
        <g id="g1210">
            <path d="m464.34,165.36v1.84s364.84,246.88,364.84,246.88l14.18,9.6h2.66l-16-10.82-365.67-247.49Z" fill="#fff"
                id="path1212"
                stroke-width="0" />
        </g>
        <g id="g1214">
            <path d="m462.96,166.86l363.48,245.98,18.35,12.42" fill="none" id="path1216" stroke="#000"
                stroke-miterlimit="15.12" stroke-width=".99" />
        </g>
        <g id="g1218">
            <g clip-path="url(#clippath-9)">
                <g id="g1220">
                    <g id="g1226">
                        <g id="g1240">
                            <g clip-path="url(#clippath-10)">
                                <g id="g1238" opacity=".99">
                                    <g id="g1236">
                                        <path d="m464.34,173.28v5.2l4.89,11.94,26.81.23,10.18,24.8,26.81.23,10.18,24.8,26.8.21,10.19,24.83,26.8.21,10.17,24.8,26.82.24,10.17,24.8,26.82.24,10.17,24.8,26.82.23,10.18,24.8,26.81.21,10.18,24.8,26.8.23,10.17,24.8,26.82.23,3.18,7.75h2.15l-3.99-9.72-26.82-.23-10.17-24.8-26.8-.21-10.19-24.82-26.8-.21-10.17-24.8-26.82-.23-10.17-24.8-26.82-.23-10.17-24.8-26.82-.21-10.17-24.83-26.8-.21-10.19-24.8-26.8-.24-10.18-24.8-26.82-.23-10.17-24.8-26.82-.21-6.22-15.18Z" fill="#fff"
                                            id="path1234"
                                            stroke-width="0" />
                                    </g>
                                </g>
                            </g>
                        </g>
                    </g>
                    <g id="g1242">
                        <g id="g1256">
                            <g clip-path="url(#clippath-11)">
                                <g id="g1254" opacity=".99">
                                    <g id="g1252">
                                        <path d="m477.06,194.32l6.28,15.04,16.3.24-6.28-15.04-16.3-.24Z" fill="none" id="path1250"
                                            stroke="#000"
                                            stroke-miterlimit="15.12"
                                            stroke-width="1.98" />
                                    </g>
                                </g>
                            </g>
                        </g>
                    </g>
                    <g id="g1258">
                        <g id="g1272">
                            <g clip-path="url(#clippath-12)">
                                <g id="g1270" opacity=".99">
                                    <g id="g1268">
                                        <path d="m462.73,189.22l7.13.22,10.17,24.81,26.81.22,10.17,24.81,26.81.22,10.18,24.81,26.81.22,10.18,24.81,26.81.22,10.18,24.81,26.81.22,10.17,24.81,26.81.22,10.17,24.81,26.81.22,10.17,24.81,26.81.22,10.18,24.81,26.81.22,1.83,4.47,2.49,6.06" fill="none" id="path1266"
                                            stroke="#000"
                                            stroke-miterlimit="15.12"
                                            stroke-width="1.98" />
                                    </g>
                                </g>
                            </g>
                        </g>
                    </g>
                    <g id="g1274">
                        <g id="g1288">
                            <g clip-path="url(#clippath-13)">
                                <g id="g1286" opacity=".99">
                                    <g id="g1284">
                                        <path d="m477.05,194.31h0s2.99,2.03,2.99,2.03l12,.18,4.61,11.06,2.99,2.02h.02s-6.28-15.04-6.28-15.04l-16.32-.25Z" fill="#f6f5f4"
                                            id="path1282"
                                            stroke-width="0" />
                                    </g>
                                </g>
                            </g>
                        </g>
                    </g>
                </g>
            </g>
        </g>
        <g id="g1290">
            <path d="m464.34,204.2v1.8s321.61,217.67,321.61,217.67h2.67l-324.27-219.47Z" fill="#fff"
                id="path1292"
                stroke-width="0" />
        </g>
        <g id="g1294">
            <g clip-path="url(#clippath-14)">
                <g id="g1296">
                    <g id="g1302">
                        <g id="g1316">
                            <g clip-path="url(#clippath-15)">
                                <g id="g1314" opacity=".99">
                                    <g id="g1312">
                                        <path d="m514.05,219.35l6.28,15.04,16.3.24-6.28-15.04-16.3-.24Z" fill="none" id="path1310"
                                            stroke="#000"
                                            stroke-miterlimit="15.12"
                                            stroke-width="1.98" />
                                    </g>
                                </g>
                            </g>
                        </g>
                    </g>
                    <g id="g1318">
                        <g id="g1332">
                            <g clip-path="url(#clippath-16)">
                                <g id="g1330" opacity=".99">
                                    <g id="g1328">
                                        <path d="m551.03,244.38l6.28,15.04,16.3.24-6.28-15.04-16.3-.24Z" fill="none" id="path1326"
                                            stroke="#000"
                                            stroke-miterlimit="15.12"
                                            stroke-width="1.98" />
                                    </g>
                                </g>
                            </g>
                        </g>
                    </g>
                    <g id="g1334">
                        <g id="g1348">
                            <g clip-path="url(#clippath-17)">
                                <g id="g1346" opacity=".99">
                                    <g id="g1344">
                                        <path d="m588.02,269.41l6.28,15.04,16.3.24-6.28-15.04-16.3-.24Z" fill="none" id="path1342"
                                            stroke="#000"
                                            stroke-miterlimit="15.12"
                                            stroke-width="1.98" />
                                    </g>
                                </g>
                            </g>
                        </g>
                    </g>
                    <g id="g1350">
                        <g id="g1364">
                            <g clip-path="url(#clippath-18)">
                                <g id="g1362" opacity=".99">
                                    <g id="g1360">
                                        <path d="m625.01,294.44l6.28,15.04,16.3.24-6.28-15.04-16.3-.24Z" fill="none" id="path1358"
                                            stroke="#000"
                                            stroke-miterlimit="15.12"
                                            stroke-width="1.98" />
                                    </g>
                                </g>
                            </g>
                        </g>
                    </g>
                    <g id="g1366">
                        <g id="g1380">
                            <g clip-path="url(#clippath-19)">
                                <g id="g1378" opacity=".99">
                                    <g id="g1376">
                                        <path d="m662,319.47l6.28,15.04,16.3.24-6.28-15.04-16.3-.24Z" fill="none" id="path1374"
                                            stroke="#000"
                                            stroke-miterlimit="15.12"
                                            stroke-width="1.98" />
                                    </g>
                                </g>
                            </g>
                        </g>
                    </g>
                    <g id="g1382">
                        <g id="g1396">
                            <g clip-path="url(#clippath-20)">
                                <g id="g1394" opacity=".99">
                                    <g id="g1392">
                                        <path d="m698.99,344.5l6.28,15.04,16.3.24-6.28-15.04-16.3-.24Z" fill="none" id="path1390"
                                            stroke="#000"
                                            stroke-miterlimit="15.12"
                                            stroke-width="1.98" />
                                    </g>
                                </g>
                            </g>
                        </g>
                    </g>
                    <g id="g1398">
                        <g id="g1412">
                            <g clip-path="url(#clippath-21)">
                                <g id="g1410" opacity=".99">
                                    <g id="g1408">
                                        <path d="m735.97,369.53l6.28,15.04,16.3.24-6.28-15.04-16.3-.24Z" fill="none" id="path1406"
                                            stroke="#000"
                                            stroke-miterlimit="15.12"
                                            stroke-width="1.98" />
                                    </g>
                                </g>
                            </g>
                        </g>
                    </g>
                    <g id="g1414">
                        <g id="g1428">
                            <g clip-path="url(#clippath-22)">
                                <g id="g1426" opacity=".99">
                                    <g id="g1424">
                                        <path d="m772.96,394.56l6.28,15.04,16.3.24-6.28-15.04-16.3-.24Z" fill="none" id="path1422"
                                            stroke="#000"
                                            stroke-miterlimit="15.12"
                                            stroke-width="1.98" />
                                    </g>
                                </g>
                            </g>
                        </g>
                    </g>
                    <g id="g1430">
                        <g id="g1444">
                            <g clip-path="url(#clippath-23)">
                                <g id="g1442" opacity=".99">
                                    <g id="g1440">
                                        <path d="m809.95,419.59l2.4,5.74,16.34.35-.23-.54-2.22-5.31-16.3-.24Z" fill="none" id="path1438"
                                            stroke="#000"
                                            stroke-miterlimit="15.12"
                                            stroke-width="1.98" />
                                    </g>
                                </g>
                            </g>
                        </g>
                    </g>
                    <g id="g1446">
                        <g id="g1460">
                            <g clip-path="url(#clippath-24)">
                                <g id="g1458" opacity=".99">
                                    <g id="g1456">
                                        <path d="m809.94,419.58h0s2.98,2.03,2.98,2.03l12,.17.79,1.89h2.14l-1.61-3.85-16.32-.25Z" fill="#f6f5f4"
                                            id="path1454"
                                            stroke-width="0" />
                                    </g>
                                </g>
                            </g>
                        </g>
                    </g>
                    <g id="g1462">
                        <g id="g1476">
                            <g clip-path="url(#clippath-25)">
                                <g id="g1474" opacity=".99">
                                    <g id="g1472">
                                        <path d="m772.95,394.55h0s2.99,2.03,2.99,2.03l12,.18,4.61,11.06,2.99,2.02h.02s-6.28-15.04-6.28-15.04l-16.32-.25Z" fill="#f6f5f4"
                                            id="path1470"
                                            stroke-width="0" />
                                    </g>
                                </g>
                            </g>
                        </g>
                    </g>
                    <g id="g1478">
                        <g id="g1492">
                            <g clip-path="url(#clippath-26)">
                                <g id="g1490" opacity=".99">
                                    <g id="g1488">
                                        <path d="m735.96,369.52h0s2.99,2.03,2.99,2.03l12,.18,4.61,11.06,2.99,2.02h.02s-6.28-15.04-6.28-15.04l-16.32-.25Z" fill="#f6f5f4"
                                            id="path1486"
                                            stroke-width="0" />
                                    </g>
                                </g>
                            </g>
                        </g>
                    </g>
                    <g id="g1494">
                        <g id="g1508">
                            <g clip-path="url(#clippath-27)">
                                <g id="g1506" opacity=".99">
                                    <g id="g1504">
                                        <path d="m698.97,344.49h0s2.99,2.03,2.99,2.03l12,.18,4.61,11.06,2.99,2.02h.02s-6.28-15.04-6.28-15.04l-16.32-.25Z" fill="#f6f5f4"
                                            id="path1502"
                                            stroke-width="0" />
                                    </g>
                                </g>
                            </g>
                        </g>
                    </g>
                    <g id="g1510">
                        <g id="g1524">
                            <g clip-path="url(#clippath-28)">
                                <g id="g1522" opacity=".99">
                                    <g id="g1520">
                                        <path d="m661.99,319.46h0s2.99,2.03,2.99,2.03l12,.18,4.61,11.06,2.99,2.02h.02s-6.28-15.04-6.28-15.04l-16.32-.25Z" fill="#f6f5f4"
                                            id="path1518"
                                            stroke-width="0" />
                                    </g>
                                </g>
                            </g>
                        </g>
                    </g>
                    <g id="g1526">
                        <g id="g1540">
                            <g clip-path="url(#clippath-29)">
                                <g id="g1538" opacity=".99">
                                    <g id="g1536">
                                        <path d="m625,294.43h0s2.99,2.03,2.99,2.03l12,.18,4.61,11.06,2.99,2.02h.02s-6.28-15.04-6.28-15.04l-16.32-.25Z" fill="#f6f5f4"
                                            id="path1534"
                                            stroke-width="0" />
                                    </g>
                                </g>
                            </g>
                        </g>
                    </g>
                    <g id="g1542">
                        <g id="g1556">
                            <g clip-path="url(#clippath-30)">
                                <g id="g1554" opacity=".99">
                                    <g id="g1552">
                                        <path d="m588.01,269.4h0s2.99,2.03,2.99,2.03l12,.18,4.61,11.06,2.99,2.02h.02s-6.28-15.04-6.28-15.04l-16.32-.25Z" fill="#f6f5f4"
                                            id="path1550"
                                            stroke-width="0" />
                                    </g>
                                </g>
                            </g>
                        </g>
                    </g>
                    <g id="g1558">
                        <g id="g1572">
                            <g clip-path="url(#clippath-31)">
                                <g id="g1570" opacity=".99">
                                    <g id="g1568">
                                        <path d="m551.02,244.37h0s2.99,2.03,2.99,2.03l12,.18,4.61,11.06,2.99,2.02h.02s-6.28-15.04-6.28-15.04l-16.32-.25Z" fill="#f6f5f4"
                                            id="path1566"
                                            stroke-width="0" />
                                    </g>
                                </g>
                            </g>
                        </g>
                    </g>
                    <g id="g1574">
                        <g id="g1588">
                            <g clip-path="url(#clippath-32)">
                                <g id="g1586" opacity=".99">
                                    <g id="g1584">
                                        <path d="m514.04,219.34h0s2.99,2.03,2.99,2.03l12,.18,4.61,11.06,2.99,2.02h.02s-6.28-15.04-6.28-15.04l-16.32-.25Z" fill="#f6f5f4"
                                            id="path1582"
                                            stroke-width="0" />
                                    </g>
                                </g>
                            </g>
                        </g>
                    </g>
                </g>
            </g>
        </g>
        <g id="g1590">
            <path d="m462.44,202.35l329,222.64" fill="none" id="path1592" stroke="#000"
                stroke-miterlimit="15.12" stroke-width=".99" />
        </g>
        <g id="g1594">
            <g clip-path="url(#clippath-33)">
                <g id="g1596">
                    <g id="g1602">
                        <g id="g1616">
                            <g clip-path="url(#clippath-34)">
                                <g id="g1614" opacity=".99">
                                    <g id="g1612">
                                        <path d="m868.04,398.46l-2.22,4.49s0,0,0,0c-1.16,6.26-.22,12.52,2.55,17.75l.72-.42v-.1c-3.44-6.35-4.11-14.3-1.06-21.71h0Zm-42.75-18.11l-.45,1.69c.5,4.39,1.57,8.36,3.53,11.89l.64-.36-.02-.08c-2.25-3.81-3.39-8.17-3.67-13.04l-.03-.1Zm-32.79-32.84l-2.22,4.48h0s0,0,0,.01c-1.15,6.26-.23,12.52,2.54,17.75l.74-.43v-.08c-3.45-6.36-4.11-14.31-1.06-21.73h0Zm-42.76-18.12l-.45,1.68h0s.02,0,.02,0c.49,4.39,1.55,8.37,3.52,11.9l.64-.36-.03-.08c-2.26-3.82-3.4-8.18-3.68-13.06l-.02-.09Zm-32.78-32.82s-.02.02-.03.03l-2.19,4.43v.04s.01,0,.02-.02c-1.16,6.26-.24,12.51,2.52,17.74l.73-.43v-.05c-3.44-6.35-4.1-14.29-1.05-21.71v-.04Zm-42.76-18.14l-.45,1.69s0,0,0,0c.49,4.39,1.55,8.37,3.52,11.9l.65-.36-.02-.08c-2.27-3.83-3.42-8.2-3.69-13.09v-.05Zm-32.77-32.82s-.01,0-.02.02l-2.21,4.46v.03s0,0,.02-.02c-1.16,6.26-.24,12.52,2.52,17.75l.74-.43v-.06c-3.45-6.35-4.11-14.31-1.06-21.73v-.02Zm-42.77-18.14l-.46,1.68v.02c.5,4.39,1.57,8.36,3.53,11.89l.65-.36v-.05c-2.29-3.84-3.44-8.24-3.71-13.15v-.03Zm-32.78-32.82l-2.21,4.49c-1.16,6.26-.24,12.53,2.53,17.76l.74-.43v-.06c-3.46-6.36-4.13-14.33-1.06-21.76h0Zm-42.77-18.14l-.45,1.69s0,0,0,0c.49,4.39,1.55,8.37,3.52,11.9l.65-.36v-.03c-2.29-3.85-3.45-8.25-3.72-13.17v-.02Zm-35.44-21.29c.23,3.83,1.24,7.46,2.97,10.73h0l.76-.44h0c-1.71-3.15-2.75-6.62-2.98-10.29h-.75Z" fill="#fff"
                                            id="path1610"
                                            stroke-width="0" />
                                    </g>
                                </g>
                            </g>
                        </g>
                    </g>
                </g>
            </g>
        </g>
    </g>
</svg>